<mxfile host="app.diagrams.net" agent="Mozilla/5.0 (Macintosh; Intel Mac OS X 10_15_7) AppleWebKit/537.36 (KHTML, like Gecko) Chrome/127.0.0.0 Safari/537.36" version="24.7.17">
  <diagram name="Страница — 1" id="h0-7AWinH9U67Zn3uGkM">
    <mxGraphModel dx="591" dy="390" grid="1" gridSize="10" guides="1" tooltips="1" connect="1" arrows="1" fold="1" page="1" pageScale="1" pageWidth="827" pageHeight="1169" math="0" shadow="0">
      <root>
        <mxCell id="0" />
        <mxCell id="1" parent="0" />
        <mxCell id="mddO_kwm8N-e2g8UEQZn-6" style="edgeStyle=orthogonalEdgeStyle;rounded=0;orthogonalLoop=1;jettySize=auto;html=1;" edge="1" parent="1" source="mddO_kwm8N-e2g8UEQZn-1">
          <mxGeometry relative="1" as="geometry">
            <mxPoint x="520" y="360" as="targetPoint" />
            <Array as="points">
              <mxPoint x="490" y="360" />
              <mxPoint x="490" y="360" />
            </Array>
          </mxGeometry>
        </mxCell>
        <mxCell id="mddO_kwm8N-e2g8UEQZn-18" style="edgeStyle=orthogonalEdgeStyle;rounded=0;orthogonalLoop=1;jettySize=auto;html=1;exitX=1;exitY=0.75;exitDx=0;exitDy=0;" edge="1" parent="1" source="mddO_kwm8N-e2g8UEQZn-1">
          <mxGeometry relative="1" as="geometry">
            <mxPoint x="520" y="400" as="targetPoint" />
          </mxGeometry>
        </mxCell>
        <mxCell id="mddO_kwm8N-e2g8UEQZn-1" value="Функционирование системы управления складом" style="rounded=0;whiteSpace=wrap;html=1;" vertex="1" parent="1">
          <mxGeometry x="270" y="340" width="160" height="80" as="geometry" />
        </mxCell>
        <mxCell id="mddO_kwm8N-e2g8UEQZn-2" value="" style="endArrow=classic;html=1;rounded=0;entryX=0.494;entryY=-0.02;entryDx=0;entryDy=0;entryPerimeter=0;" edge="1" parent="1">
          <mxGeometry width="50" height="50" relative="1" as="geometry">
            <mxPoint x="310.96" y="271.6" as="sourcePoint" />
            <mxPoint x="309.99999999999994" y="340" as="targetPoint" />
          </mxGeometry>
        </mxCell>
        <mxCell id="mddO_kwm8N-e2g8UEQZn-5" value="" style="endArrow=classic;html=1;rounded=0;entryX=0;entryY=0.25;entryDx=0;entryDy=0;" edge="1" parent="1" target="mddO_kwm8N-e2g8UEQZn-1">
          <mxGeometry width="50" height="50" relative="1" as="geometry">
            <mxPoint x="150" y="360" as="sourcePoint" />
            <mxPoint x="410" y="370" as="targetPoint" />
          </mxGeometry>
        </mxCell>
        <mxCell id="mddO_kwm8N-e2g8UEQZn-7" value="" style="endArrow=classic;html=1;rounded=0;entryX=0.5;entryY=1;entryDx=0;entryDy=0;" edge="1" parent="1" target="mddO_kwm8N-e2g8UEQZn-1">
          <mxGeometry width="50" height="50" relative="1" as="geometry">
            <mxPoint x="350" y="500" as="sourcePoint" />
            <mxPoint x="436" y="380" as="targetPoint" />
          </mxGeometry>
        </mxCell>
        <mxCell id="mddO_kwm8N-e2g8UEQZn-9" value="данные о товарах" style="text;html=1;align=center;verticalAlign=middle;whiteSpace=wrap;rounded=0;" vertex="1" parent="1">
          <mxGeometry x="120" y="340" width="140" height="20" as="geometry" />
        </mxCell>
        <mxCell id="mddO_kwm8N-e2g8UEQZn-10" value="" style="endArrow=classic;html=1;rounded=0;entryX=0;entryY=0.25;entryDx=0;entryDy=0;" edge="1" parent="1">
          <mxGeometry width="50" height="50" relative="1" as="geometry">
            <mxPoint x="150" y="400" as="sourcePoint" />
            <mxPoint x="270" y="400" as="targetPoint" />
          </mxGeometry>
        </mxCell>
        <mxCell id="mddO_kwm8N-e2g8UEQZn-11" value="данные о складе" style="text;html=1;align=center;verticalAlign=middle;whiteSpace=wrap;rounded=0;" vertex="1" parent="1">
          <mxGeometry x="120" y="380" width="140" height="20" as="geometry" />
        </mxCell>
        <mxCell id="mddO_kwm8N-e2g8UEQZn-12" value="учет товаров" style="text;html=1;align=center;verticalAlign=middle;whiteSpace=wrap;rounded=0;" vertex="1" parent="1">
          <mxGeometry x="240" y="240" width="140" height="20" as="geometry" />
        </mxCell>
        <mxCell id="mddO_kwm8N-e2g8UEQZn-13" value="" style="endArrow=classic;html=1;rounded=0;entryX=0.494;entryY=-0.02;entryDx=0;entryDy=0;entryPerimeter=0;" edge="1" parent="1">
          <mxGeometry width="50" height="50" relative="1" as="geometry">
            <mxPoint x="400.96" y="271.6" as="sourcePoint" />
            <mxPoint x="399.99999999999994" y="340" as="targetPoint" />
          </mxGeometry>
        </mxCell>
        <mxCell id="mddO_kwm8N-e2g8UEQZn-14" value="управление&amp;nbsp;&lt;div&gt;хранением&lt;/div&gt;" style="text;html=1;align=center;verticalAlign=middle;whiteSpace=wrap;rounded=0;" vertex="1" parent="1">
          <mxGeometry x="330" y="240" width="140" height="20" as="geometry" />
        </mxCell>
        <mxCell id="mddO_kwm8N-e2g8UEQZn-16" value="&lt;div&gt;ПО для управления складом&lt;/div&gt;" style="text;html=1;align=center;verticalAlign=middle;whiteSpace=wrap;rounded=0;" vertex="1" parent="1">
          <mxGeometry x="280" y="500" width="140" height="20" as="geometry" />
        </mxCell>
        <mxCell id="mddO_kwm8N-e2g8UEQZn-17" value="обновленные данные о товарах" style="text;html=1;align=center;verticalAlign=middle;whiteSpace=wrap;rounded=0;" vertex="1" parent="1">
          <mxGeometry x="430" y="330" width="140" height="20" as="geometry" />
        </mxCell>
        <mxCell id="mddO_kwm8N-e2g8UEQZn-19" value="сводный отчёт по инвентаризации" style="text;html=1;align=center;verticalAlign=middle;whiteSpace=wrap;rounded=0;" vertex="1" parent="1">
          <mxGeometry x="430" y="370" width="140" height="20" as="geometry" />
        </mxCell>
      </root>
    </mxGraphModel>
  </diagram>
</mxfile>
